# xmcd
#
# Track frame offsets:
#	150
#	14690
#	34754
#	51408
#	67353
#	82703
#	100512
#	117186
#	130950
#	147062
#	164024
#	181206
#	195814
#	212033
#	232115
#	247595
#
# Disc length: 3527 seconds
#
# Revision: 4
# Processed by: cddbd v1.5.1PL0 Copyright (c) Steve Scherf et al.
# Submitted via: audiograbber 1.83.01
#
DISCID=d70dc510
DTITLE=1997-09 Country Radio - 1997-09 Country Radio
DYEAR=1997
DGENRE=Country
TTITLE0=Brooks and Dunn - Honky Tonk Truth
TTITLE1=Tim McGraw - Everywhere
TTITLE2=The Tractors - The Last Time
TTITLE3=Trisha Yearwood and Garth Brooks - In Another's Eyes
TTITLE4=Pam Tillis - Land Of The Living
TTITLE5=Clint Black - Something That We Do
TTITLE6=Lila McCann - I Wanna Fall In Love
TTITLE7=Jeff Moore - Wrangler Butts
TTITLE8=Martina McBride - A Broken Wing
TTITLE9=Keith Perry - When I Could Fly
TTITLE10=Sherrie Austin - One Solitary Tear
TTITLE11=Great Plains - Ther's More Where That Came From
TTITLE12=LeAnn Rimes - You Light Up My Life
TTITLE13=Southern Sons - Heartaches and Misery
TTITLE14=Shelly Streeter - Call Me A Wildfire
TTITLE15=David Morgan - Those Who Couldn't Wait
EXTD=
EXTT0=
EXTT1=
EXTT2=
EXTT3=
EXTT4=
EXTT5=
EXTT6=
EXTT7=
EXTT8=
EXTT9=
EXTT10=
EXTT11=
EXTT12=
EXTT13=
EXTT14=
EXTT15=
PLAYORDER=
